<svg id="xbox" version="1.1" xmlns="http://www.w3.org/2000/svg" viewBox="0 0 580.032 580.032" xml:space="preserve">
	<path
		d="M505.765,151.733c-16.255-10.392-4.528-16.329-21.353-29.193c-16.824-12.864-85.104-34.639-96.983-24.743s-25.233,11.873-25.233,11.873h-72.112h-0.122h-72.118c0,0-13.36-1.977-25.233-11.873c-11.873-9.896-80.16,11.873-96.983,24.743c-16.824,12.864-5.098,18.801-21.353,29.193C58.02,162.125,15.467,305.619,15.467,305.619s-55.417,159.824,43.544,179.12c0,0,24.248-15.336,45.025-40.079c20.784-24.743,61.353-59.872,83.128-60.368c21.298-0.483,99.389-0.019,102.792,0l0,0c0,0,0.024,0,0.061,0c0.043,0,0.062,0,0.062,0l0,0c3.403-0.019,81.494-0.483,102.792,0c21.769,0.496,62.345,35.625,83.128,60.368s45.024,40.079,45.024,40.079c98.961-19.296,43.544-179.12,43.544-179.12S522.02,162.125,505.765,151.733z">
	</path>
</svg>