<svg xmlns="http://www.w3.org/2000/svg" viewBox="0 -0.5 45 48" shape-rendering="crispEdges">
    <metadata>Made with Pixels to Svg https://codepen.io/shshaw/pen/XbxvNj</metadata>
    <path stroke="#9f9f9f"
        d="M12 0h7M9 1h3M6 2h3M3 3h3M1 4h2M0 5h1M0 6h1M14 6h1M0 7h1M15 7h1M0 8h1M33 8h1M0 9h1M22 9h1M0 10h1M21 10h2M0 11h1M0 12h1M29 13h1M1 14h1M30 14h3M1 15h1M1 16h1M1 17h1M1 18h1M1 19h1M2 21h1M2 22h1M2 23h1M2 24h1M2 25h1M3 27h1M3 28h1M3 29h1M3 30h1M3 31h1M4 33h1M4 34h1M4 35h1" />
    <path stroke="#808080"
        d="M20 0h2M16 1h4M22 1h1M16 2h1M23 2h1M26 2h5M12 3h2M15 3h1M23 3h3M31 3h2M9 4h4M23 4h1M33 4h1M6 5h2M11 5h1M13 5h1M22 5h1M33 5h1M11 6h1M13 6h1M22 6h1M28 6h2M34 6h1M12 7h1M14 7h1M22 7h1M27 7h1M30 7h1M34 7h1M15 8h1M23 8h1M27 8h1M31 8h1M34 8h1M23 9h1M26 9h1M32 9h2M23 10h1M26 10h1M34 10h2M25 11h1M35 11h1M36 12h1M4 36h1M5 37h1M6 38h2M8 39h2M10 40h2M12 41h2M14 42h2M16 43h2M18 44h2M20 45h2M22 46h2M24 47h1" />
    <path stroke="#1f1f1f" d="M12 1h2M9 2h5M6 3h5M3 4h5M3 5h2M6 6h2M9 7h2M12 8h2M15 9h2M18 10h2M21 11h1" />
    <path stroke="#606060"
        d="M14 1h1M15 2h1M24 2h1M35 6h2M37 7h2M39 8h3M42 9h3M42 11h1M25 12h1M40 12h2M39 13h3M38 14h3M38 15h2M37 16h3M37 17h3M36 18h3M36 19h3M35 20h3M35 21h2M34 22h3M34 23h2M33 24h3M33 25h2M32 26h3M32 27h2M31 28h3M31 29h2M30 30h3M30 31h3M30 32h2M29 33h2M29 34h2M28 35h3M28 36h2M27 37h3M27 38h2M26 39h2M26 40h2M26 41h1M26 42h1" />
    <path stroke="#707070"
        d="M15 1h1M17 2h1M14 3h1M8 5h1M34 9h1M26 12h1M27 13h2M38 13h1M36 14h2M34 15h4M32 16h5M32 17h5M32 18h4M31 19h5M31 20h4M31 21h4M31 22h3M30 23h4M30 24h3M30 25h3M30 26h2M29 27h3M29 28h2M29 29h2M29 30h1M28 31h2M28 32h2M28 33h1M28 34h1M27 35h1M27 36h1" />
    <path stroke="#c0c0c0"
        d="M20 1h2M18 2h1M22 2h1M16 3h1M30 3h1M14 4h1M22 4h1M31 4h2M14 5h1M23 5h1M32 5h1M1 6h2M23 6h1M33 6h1M3 7h3M23 7h1M29 7h1M33 7h1M36 7h1M6 8h3M16 8h1M24 8h1M30 8h1M37 8h1M9 9h3M24 9h2M31 9h1M38 9h1M40 9h2M12 10h3M32 10h2M39 10h1M41 10h1M15 11h3M33 11h1M38 11h1M18 12h3M34 12h2M21 13h3M34 13h2M24 14h3M33 14h1M27 15h3M24 16h1M26 16h1M28 16h4M25 17h1M27 17h1M29 17h2M24 18h1M26 18h1M28 18h3M25 19h1M27 19h1M29 19h2M24 20h1M26 20h1M28 20h3M25 21h1M27 21h3M24 22h1M26 22h1M28 22h2M25 23h1M27 23h3M24 24h1M26 24h4M25 25h1M27 25h3M24 26h1M26 26h3M25 27h4M26 28h3M26 29h3M26 30h2M26 31h2M25 32h3M25 33h2M25 34h2M24 35h3M23 36h1M25 36h2M24 37h2M23 38h1M25 38h1M24 39h2M23 40h2M24 41h1M23 42h2M22 43h1M24 43h1M23 44h2M24 45h1" />
    <path stroke="#505050"
        d="M14 2h1M11 3h1M8 4h1M5 5h1M8 6h1M11 7h1M14 8h1M17 9h1M20 10h1M23 11h1M43 11h1M42 13h2M42 14h2M41 15h2M41 16h2M40 17h2M40 18h2M39 19h2M39 20h1M38 21h2M37 22h2M37 23h2M36 24h3M36 25h2M35 26h3M35 27h2M34 28h3M34 29h3M34 30h2M33 31h3M33 32h2M32 33h3M32 34h2M31 35h3M31 36h2M30 37h3M30 38h2M29 39h3M29 40h2M28 41h3M28 42h2M27 43h3M27 44h2M27 45h1M27 46h1" />
    <path stroke="#ffffff"
        d="M19 2h3M17 3h4M26 3h4M13 4h1M15 4h5M21 4h1M24 4h7M1 5h2M9 5h2M12 5h1M15 5h4M20 5h1M24 5h4M30 5h2M3 6h3M15 6h3M19 6h1M24 6h2M32 6h1M6 7h3M16 7h1M18 7h1M28 7h1M9 8h3M28 8h2M12 9h3M29 9h2M15 10h3M30 10h2M42 10h2M18 11h3M31 11h2M40 11h2M21 12h3M32 12h2M38 12h2M24 13h3M36 13h2M27 14h3M34 14h2M30 15h4M17 16h1M18 17h1M10 18h1M19 18h1M10 19h1M22 19h1M11 20h1M22 20h1M11 21h1M22 21h1M12 22h1M22 22h1M13 23h1M22 23h1M10 24h1M22 24h1M10 25h1M10 26h1M10 27h1M24 27h1M10 28h1M25 28h1M10 29h1M25 29h1M11 30h1M18 30h1M25 30h1M12 31h1M18 31h1M25 31h1M13 32h1M18 32h1M24 32h1M13 33h1M23 33h1M22 34h1M21 35h1M20 36h1M20 37h1M20 38h1" />
    <path stroke="#e0e0d0"
        d="M21 3h1M20 4h1M19 5h1M21 5h1M28 5h2M12 6h1M18 6h1M20 6h1M26 6h2M30 6h2M1 7h2M17 7h1M19 7h1M21 7h1M24 7h3M1 8h5M17 8h2M20 8h1M25 8h1M1 9h8M19 9h1M28 9h1M1 10h11M27 10h1M29 10h1M2 11h10M13 11h1M26 11h3M30 11h1M2 12h11M14 12h1M16 12h1M29 12h1M31 12h1M2 13h12M15 13h1M17 13h1M19 13h1M2 14h13M16 14h1M18 14h1M20 14h1M22 14h1M2 15h14M17 15h1M19 15h1M21 15h1M2 16h8M16 16h1M18 16h1M20 16h1M3 17h5M9 17h1M19 17h1M3 18h4M11 18h4M3 19h3M11 19h3M15 19h1M3 20h2M13 20h2M16 20h1M3 21h1M12 21h2M15 21h1M17 21h1M3 22h3M13 22h2M16 22h1M3 23h4M14 23h2M4 24h3M11 24h2M14 24h1M16 24h1M4 25h3M11 25h1M13 25h1M15 25h1M17 25h1M4 26h3M11 26h1M14 26h1M16 26h1M18 26h1M4 27h3M11 27h3M15 27h1M17 27h1M4 28h3M11 28h2M14 28h1M16 28h1M18 28h1M4 29h4M11 29h3M15 29h1M17 29h1M5 30h4M12 30h3M16 30h1M5 31h5M13 31h1M15 31h1M5 32h6M14 32h1M5 33h7M5 34h9M5 35h10M6 36h10M8 37h5M14 37h1M16 37h1M10 38h2M13 38h1M15 38h1M17 38h1M12 39h1M14 39h1M16 39h1M18 39h1M20 39h1M15 40h1M17 40h1M19 40h1M21 40h1M16 41h1M18 41h1M20 41h1M19 42h1M21 42h1" />
    <path stroke="#b0b0b0" d="M22 3h1M9 6h2M13 7h1M22 8h1M24 10h2M24 11h1M34 11h1" />
    <path stroke="#cfcfcf"
        d="M21 6h1M20 7h1M31 7h2M19 8h1M21 8h1M26 8h1M32 8h1M18 9h1M20 9h2M27 9h1M28 10h1M1 11h1M12 11h1M14 11h1M29 11h1M1 12h1M13 12h1M15 12h1M17 12h1M27 12h2M30 12h1M14 13h1M16 13h1M18 13h1M20 13h1M30 13h4M15 14h1M17 14h1M19 14h1M21 14h1M23 14h1M16 15h1M18 15h1M20 15h1M22 15h5M19 16h1M21 16h3M25 16h1M27 16h1M2 17h1M20 17h5M26 17h1M28 17h1M2 18h1M20 18h1M23 18h1M25 18h1M27 18h1M2 19h1M14 19h1M23 19h2M26 19h1M28 19h1M15 20h1M23 20h1M25 20h1M27 20h1M14 21h1M16 21h1M23 21h2M26 21h1M15 22h1M23 22h1M25 22h1M27 22h1M23 23h2M26 23h1M3 24h1M13 24h1M15 24h1M17 24h1M23 24h1M25 24h1M3 25h1M14 25h1M16 25h1M18 25h7M13 26h1M15 26h1M17 26h1M19 26h3M23 26h1M25 26h1M14 27h1M16 27h1M18 27h5M13 28h1M15 28h1M17 28h1M19 28h4M14 29h1M16 29h1M18 29h5M4 30h1M15 30h1M19 30h4M4 31h1M14 31h1M19 31h3M19 32h2M24 33h1M23 34h2M22 35h2M21 36h2M24 36h1M13 37h1M15 37h1M21 37h1M23 37h1M12 38h1M14 38h1M16 38h1M21 38h1M24 38h1M13 39h1M15 39h1M17 39h1M19 39h1M23 39h1M14 40h1M16 40h1M18 40h1M20 40h1M22 40h1M17 41h1M19 41h1M21 41h3M18 42h1M20 42h1M22 42h1M20 43h2M23 43h1M22 44h1" />
    <path stroke="#afaf90"
        d="M35 7h1M35 8h2M38 8h1M35 9h3M39 9h1M36 10h3M40 10h1M36 11h2M39 11h1M37 12h1M1 13h1M31 17h1M31 18h1M2 20h1M30 21h1M30 22h1M3 26h1M29 26h1M28 30h1M4 32h1M27 33h1M27 34h1M5 36h1M6 37h2M26 37h1M8 38h2M26 38h1M10 39h2M12 40h2M25 40h1M14 41h2M25 41h1M16 42h2M25 42h1M18 43h2M20 44h2M22 45h2M24 46h1" />
    <path stroke="#4f4f4f"
        d="M44 10h1M44 11h1M43 12h2M44 13h1M44 14h1M43 15h2M43 16h1M42 17h2M42 18h2M41 19h2M40 20h3M40 21h3M39 22h2M39 23h2M39 24h2M38 25h3M38 26h2M37 27h3M37 28h2M37 29h2M36 30h2M36 31h2M35 32h2M35 33h2M34 34h2M34 35h2M33 36h2M33 37h2M32 38h3M32 39h2M31 40h3M31 41h2M30 42h3M30 43h3M29 44h3M28 45h2M28 46h1M27 47h1" />
    <path stroke="#2f2f2f"
        d="M22 11h1M24 12h1M41 22h1M41 23h1M41 24h1M41 25h1M40 26h1M40 27h1M39 28h2M39 29h2M38 30h2M38 31h2M37 32h3M37 33h3M36 34h3M36 35h3M35 36h4M35 37h4M35 38h4M34 39h4M34 40h4M33 41h5M33 42h1M36 42h1M33 43h3M32 44h2M30 45h2M29 46h1" />
    <path stroke="#5f5f5f"
        d="M42 12h1M41 14h1M40 15h1M40 16h1M39 18h1M38 20h1M37 21h1M36 23h1M35 25h1M34 27h1M33 29h1M33 30h1M32 32h1M31 33h1M31 34h1M30 36h1M29 38h1M28 39h1M28 40h1M27 41h1M27 42h1M25 43h2M25 44h2M25 45h2M25 46h2M25 47h2" />
    <path stroke="#9fcf9f"
        d="M10 16h1M8 17h1M11 17h3M17 17h1M7 18h1M9 18h1M6 19h1M5 20h1M10 20h1M4 21h1M6 22h1M10 23h1M18 24h1M7 28h1M24 28h1M24 29h1M24 30h1M24 31h1M11 32h1M12 33h1M14 34h1M15 35h1M16 36h1M19 36h1M17 37h1M18 38h1" />
    <path stroke="#609f60"
        d="M11 16h1M15 16h1M10 17h1M14 17h1M16 17h1M15 18h1M18 18h1M16 19h1M19 19h1M20 20h1M7 22h1M17 22h1M7 23h1M9 23h1M7 24h1M9 24h1M19 24h1M7 25h1M9 25h1M7 26h1M9 26h1M22 26h1M7 27h1M9 27h1M23 27h1M8 29h1M9 30h1M17 30h1M10 31h1M16 31h1M22 31h1M15 32h1M21 32h1M14 33h1M18 33h2M20 35h1M18 36h1M19 37h1" />
    <path stroke="#008000"
        d="M12 16h3M15 17h1M8 18h1M16 18h2M21 18h1M7 19h3M17 19h2M21 19h1M6 20h4M18 20h2M21 20h1M5 21h6M19 21h3M8 22h4M20 22h2M8 23h1M21 23h1M8 24h1M8 25h1M8 26h1M8 27h1M8 28h2M17 31h1M16 32h2M22 32h1M15 33h3M20 33h2M15 34h6M16 35h4M17 36h1M18 37h1" />
    <path stroke="#efefef" d="M22 18h1M20 19h1M12 20h1M12 25h1M12 26h1" />
    <path stroke="#006000"
        d="M17 20h1M18 21h1M18 22h2M11 23h2M16 23h5M20 24h2M23 28h1M9 29h1M23 29h1M10 30h1M23 30h1M11 31h1M23 31h1M12 32h1M23 32h1M22 33h1M21 34h1M19 38h1" />
    <path stroke="#d0d0d0" d="M26 25h1M22 37h1M22 38h1M21 39h2" />
    <path stroke="#202020" d="M34 42h2" />
</svg>