<svg xmlns="http://www.w3.org/2000/svg" viewBox="0 -0.5 32 26" shape-rendering="crispEdges">
<metadata>Made with Pixels to Svg https://codepen.io/shshaw/pen/XbxvNj</metadata>
<path stroke="#c0c0c0" d="M0 0h32M0 1h1M0 2h1M2 2h1M25 2h1M28 2h1M0 3h1M0 4h1M0 5h1M0 6h1M0 7h1M0 8h1M0 9h1M0 10h1M0 11h1M0 12h1M0 13h1M0 14h1M0 15h1M0 16h1M0 17h1M0 18h1M0 19h1M0 20h1M0 21h1M0 22h1M0 23h1M0 24h1M0 25h1" />
<path stroke="#000000" d="M1 1h30M1 2h1M4 2h1M24 2h1M27 2h1M30 2h1M1 3h1M4 3h1M24 3h1M27 3h1M30 3h1M1 4h30M1 5h30M1 6h30M1 7h30M1 8h5M9 8h5M15 8h16M1 9h4M6 9h3M10 9h4M15 9h16M1 10h4M6 10h6M13 10h2M16 10h15M1 11h4M6 11h9M16 11h15M1 12h4M6 12h3M10 12h6M17 12h14M1 13h5M9 13h3M13 13h3M17 13h1M25 13h6M1 14h30M1 15h30M1 16h30M1 17h30M1 18h30M1 19h30M1 20h30M1 21h30M1 22h30M1 23h30M1 24h30" />
<path stroke="#808080" d="M31 1h1M3 2h1M26 2h1M29 2h1M31 2h1M2 3h2M25 3h2M28 3h2M31 3h1M31 4h1M31 5h1M31 6h1M31 7h1M31 8h1M31 9h1M31 10h1M31 11h1M31 12h1M31 13h1M31 14h1M31 15h1M31 16h1M31 17h1M31 18h1M31 19h1M31 20h1M31 21h1M31 22h1M31 23h1M31 24h1M1 25h31" />
<path stroke="#0000ff" d="M5 2h7M13 2h1M15 2h1M17 2h1M19 2h5M5 3h19" />
<path stroke="#ffffff" d="M12 2h1M14 2h1M16 2h1M18 2h1M6 8h3M14 8h1M5 9h1M9 9h1M14 9h1M5 10h1M12 10h1M15 10h1M5 11h1M15 11h1M5 12h1M9 12h1M16 12h1M6 13h3M12 13h1M16 13h1M18 13h7" />
</svg>