<svg xmlns="http://www.w3.org/2000/svg" viewBox="0 -0.5 48 40" shape-rendering="crispEdges">
<metadata>Made with Pixels to Svg https://codepen.io/shshaw/pen/XbxvNj</metadata>
<path stroke="#999900" d="M6 0h13M5 1h1M19 1h1M4 2h1M20 2h1M3 3h1M21 3h1M2 4h1M22 4h1M1 5h1M23 5h1M0 6h1M24 6h1M0 7h1M25 7h20M0 8h1M0 9h1M46 9h1M0 10h1M46 10h1M0 11h1M46 11h1M0 12h1M46 12h1M0 13h1M46 13h1M0 14h1M46 14h1M0 15h1M46 15h1M0 16h1M46 16h1M0 17h1M46 17h1M0 18h1M46 18h1M0 19h1M46 19h1M0 20h1M46 20h1M0 21h1M46 21h1M0 22h1M46 22h1M0 23h1M46 23h1M0 24h1M46 24h1M0 25h1M46 25h1M0 26h1M46 26h1M0 27h1M46 27h1M0 28h1M46 28h1M0 29h1M46 29h1M0 30h1M46 30h1M0 31h1M46 31h1M0 32h1M46 32h1M0 33h1M46 33h1M0 34h1M46 34h1M0 35h1M46 35h1M0 36h1M46 36h1M0 37h1M46 37h1M0 38h1M2 38h45" />
<path stroke="#000000" d="M19 0h1M20 1h1M21 2h1M22 3h1M23 4h1M24 5h1M25 6h1M45 7h1M46 8h1M47 9h1M47 10h1M47 11h1M47 12h1M47 13h1M47 14h1M47 15h1M47 16h1M47 17h1M47 18h1M47 19h1M47 20h1M47 21h1M47 22h1M47 23h1M47 24h1M47 25h1M47 26h1M47 27h1M47 28h1M47 29h1M47 30h1M47 31h1M47 32h1M47 33h1M47 34h1M47 35h1M47 36h1M47 37h1M47 38h1M0 39h47" />
<path stroke="#f8f8f8" d="M6 1h13M5 2h1M4 3h1M3 4h1M2 5h1M1 6h1M1 8h45M1 9h1M1 10h1M1 11h1M1 12h1M1 13h1M1 14h1M1 15h1M1 16h1M1 17h1M1 18h1M1 19h1M1 20h1M1 21h1M1 22h1M1 23h1M1 24h1M1 25h1M1 26h1M1 27h1M1 28h1M1 29h1M1 30h1M1 31h1M1 32h1M1 33h1M1 34h1M1 35h1M1 36h1M1 37h1" />
<path stroke="#ffff99" d="M6 2h14M5 3h16M4 4h18M3 5h20M2 6h22M2 9h36M39 9h2M42 9h1M44 9h1M2 10h28M31 10h2M34 10h1M36 10h1M38 10h2M41 10h3M45 10h1M2 11h26M29 11h3M33 11h6M40 11h2M44 11h1M2 12h22M25 12h1M27 12h4M32 12h2M35 12h1M37 12h1M39 12h1M41 12h1M43 12h1M45 12h1M2 13h27M30 13h5M36 13h1M38 13h2M41 13h2M44 13h1M2 14h25M28 14h2M31 14h1M33 14h1M35 14h4M40 14h1M43 14h1M45 14h1M2 15h19M22 15h1M24 15h1M26 15h9M36 15h1M39 15h1M41 15h2M44 15h1M2 16h25M28 16h1M30 16h1M32 16h1M34 16h2M37 16h2M40 16h1M43 16h1M45 16h1M2 17h17M20 17h4M25 17h7M33 17h1M35 17h2M38 17h1M40 17h2M43 17h1M2 18h20M23 18h2M26 18h1M28 18h1M30 18h1M32 18h3M37 18h1M39 18h1M41 18h1M43 18h1M45 18h1M2 19h15M18 19h12M31 19h2M35 19h2M38 19h1M40 19h1M42 19h1M44 19h1M2 20h17M20 20h1M22 20h1M24 20h1M26 20h1M28 20h1M30 20h2M33 20h2M36 20h1M38 20h1M40 20h1M43 20h1M2 21h13M16 21h12M29 21h1M31 21h1M33 21h1M35 21h1M37 21h1M39 21h1M41 21h1M44 21h1M2 22h15M18 22h3M22 22h1M24 22h1M26 22h1M28 22h3M32 22h1M34 22h1M36 22h1M38 22h1M41 22h1M43 22h1M45 22h1M2 23h18M21 23h5M27 23h2M31 23h1M33 23h2M36 23h1M38 23h1M40 23h1M42 23h1M2 24h10M13 24h1M15 24h2M18 24h1M20 24h2M23 24h1M25 24h2M28 24h3M32 24h1M35 24h1M37 24h1M39 24h1M43 24h1M45 24h1M2 25h21M24 25h1M26 25h2M30 25h2M33 25h2M36 25h1M40 25h2M2 26h14M17 26h2M20 26h1M22 26h5M28 26h2M32 26h1M35 26h1M37 26h1M39 26h1M42 26h1M44 26h1M2 27h8M11 27h2M14 27h1M16 27h2M19 27h1M21 27h2M24 27h1M27 27h1M29 27h1M31 27h2M34 27h1M38 27h1M41 27h1M2 28h15M18 28h4M23 28h1M25 28h2M28 28h1M30 28h1M33 28h1M35 28h2M39 28h1M43 28h1M45 28h1M2 29h5M8 29h3M12 29h2M15 29h4M20 29h1M22 29h3M26 29h1M28 29h1M30 29h2M34 29h1M37 29h1M40 29h1M42 29h1M2 30h7M10 30h2M13 30h2M16 30h1M18 30h2M21 30h2M25 30h1M27 30h1M29 30h1M32 30h2M36 30h1M38 30h1M44 30h1M2 31h12M15 31h4M20 31h2M23 31h3M27 31h1M29 31h1M31 31h1M35 31h1M40 31h1M42 31h1M2 32h3M6 32h2M9 32h2M12 32h4M17 32h1M19 32h1M21 32h1M23 32h1M26 32h1M28 32h1M30 32h1M32 32h1M34 32h1M36 32h1M38 32h1M2 33h10M13 33h1M15 33h2M18 33h3M22 33h1M24 33h2M27 33h1M29 33h1M33 33h1M39 33h1M41 33h1M44 33h1M2 34h6M9 34h1M11 34h5M17 34h2M21 34h1M23 34h1M26 34h1M28 34h1M31 34h2M35 34h1M37 34h1M42 34h1M2 35h2M5 35h1M7 35h6M14 35h1M16 35h2M19 35h2M22 35h1M24 35h2M28 35h1M30 35h1M34 35h1M39 35h1M2 36h6M9 36h1M11 36h1M13 36h1M15 36h2M18 36h1M20 36h2M23 36h1M26 36h2M30 36h1M32 36h1M36 36h1M38 36h1M41 36h1M2 37h1M4 37h2M7 37h4M12 37h3M16 37h1M18 37h1M21 37h1M23 37h2M28 37h1M31 37h1M33 37h1M44 37h1" />
<path stroke="#cccc66" d="M1 7h24M1 38h1" />
<path stroke="#ffcc99" d="M38 9h1M41 9h1M43 9h1M45 9h1M30 10h1M33 10h1M35 10h1M37 10h1M40 10h1M44 10h1M28 11h1M32 11h1M39 11h1M42 11h2M45 11h1M24 12h1M26 12h1M31 12h1M34 12h1M36 12h1M38 12h1M40 12h1M42 12h1M44 12h1M29 13h1M35 13h1M37 13h1M40 13h1M43 13h1M45 13h1M27 14h1M30 14h1M32 14h1M34 14h1M39 14h1M41 14h2M44 14h1M21 15h1M23 15h1M25 15h1M35 15h1M37 15h2M40 15h1M43 15h1M45 15h1M27 16h1M29 16h1M31 16h1M33 16h1M36 16h1M39 16h1M41 16h2M44 16h1M19 17h1M24 17h1M32 17h1M34 17h1M37 17h1M39 17h1M42 17h1M44 17h2M22 18h1M25 18h1M27 18h1M29 18h1M31 18h1M35 18h2M38 18h1M40 18h1M42 18h1M44 18h1M17 19h1M30 19h1M33 19h2M37 19h1M39 19h1M41 19h1M43 19h1M45 19h1M19 20h1M21 20h1M23 20h1M25 20h1M27 20h1M29 20h1M32 20h1M35 20h1M37 20h1M39 20h1M41 20h2M44 20h2M15 21h1M28 21h1M30 21h1M32 21h1M34 21h1M36 21h1M38 21h1M40 21h1M42 21h2M45 21h1M17 22h1M21 22h1M23 22h1M25 22h1M27 22h1M31 22h1M33 22h1M35 22h1M37 22h1M39 22h2M42 22h1M44 22h1M20 23h1M26 23h1M29 23h2M32 23h1M35 23h1M37 23h1M39 23h1M41 23h1M43 23h3M12 24h1M14 24h1M17 24h1M19 24h1M22 24h1M24 24h1M27 24h1M31 24h1M33 24h2M36 24h1M38 24h1M40 24h3M44 24h1M23 25h1M25 25h1M28 25h2M32 25h1M35 25h1M37 25h3M42 25h4M16 26h1M19 26h1M21 26h1M27 26h1M30 26h2M33 26h2M36 26h1M38 26h1M40 26h2M43 26h1M45 26h1M10 27h1M13 27h1M15 27h1M18 27h1M20 27h1M23 27h1M25 27h2M28 27h1M30 27h1M33 27h1M35 27h3M39 27h2M42 27h4M17 28h1M22 28h1M24 28h1M27 28h1M29 28h1M31 28h2M34 28h1M37 28h2M40 28h3M44 28h1M7 29h1M11 29h1M14 29h1M19 29h1M21 29h1M25 29h1M27 29h1M29 29h1M32 29h2M35 29h2M38 29h2M41 29h1M43 29h3M9 30h1M12 30h1M15 30h1M17 30h1M20 30h1M23 30h2M26 30h1M28 30h1M30 30h2M34 30h2M37 30h1M39 30h5M45 30h1M14 31h1M19 31h1M22 31h1M26 31h1M28 31h1M30 31h1M32 31h3M36 31h4M41 31h1M43 31h3M5 32h1M8 32h1M11 32h1M16 32h1M18 32h1M20 32h1M22 32h1M24 32h2M27 32h1M29 32h1M31 32h1M33 32h1M35 32h1M37 32h1M39 32h7M12 33h1M14 33h1M17 33h1M21 33h1M23 33h1M26 33h1M28 33h1M30 33h3M34 33h5M40 33h1M42 33h2M45 33h1M8 34h1M10 34h1M16 34h1M19 34h2M22 34h1M24 34h2M27 34h1M29 34h2M33 34h2M36 34h1M38 34h4M43 34h3M4 35h1M6 35h1M13 35h1M15 35h1M18 35h1M21 35h1M23 35h1M26 35h2M29 35h1M31 35h3M35 35h4M40 35h6M8 36h1M10 36h1M12 36h1M14 36h1M17 36h1M19 36h1M22 36h1M24 36h2M28 36h2M31 36h1M33 36h3M37 36h1M39 36h2M42 36h4M3 37h1M6 37h1M11 37h1M15 37h1M17 37h1M19 37h2M22 37h1M25 37h3M29 37h2M32 37h1M34 37h10M45 37h1" />
</svg>