<?xml version="1.0" encoding="utf-8"?>
<!-- Generator: Adobe Illustrator 26.2.1, SVG Export Plug-In . SVG Version: 6.00 Build 0)  -->
<svg version="1.1" id="Layer_1" xmlns="http://www.w3.org/2000/svg" xmlns:xlink="http://www.w3.org/1999/xlink" x="0px"
	y="0px" viewBox="0 0 200 39" style="enable-background:new 0 0 200 39;" xml:space="preserve">
	<g>
		<path class="st0" d="M29.89,26.97L14.25,0.52C14.06,0.21,13.72,0,13.34,0H0.6C0.06,0-0.15,0.38,0.11,0.84l22.27,37.85
		c0.24,0.42,0.64,0.42,0.89,0l6.63-10.68C30.08,27.69,30.08,27.29,29.89,26.97z" />
	</g>
	<path class="st0" d="M30.62,0C30.28,0,30,0.28,30,0.62v10.76c0,0.34,0.28,0.62,0.62,0.62h10.76c0.34,0,0.62-0.28,0.62-0.62V0.62
	C42,0.28,41.72,0,41.38,0H30.62z" />
	<g>
		<path class="st0" d="M69.38,39c0.34,0,0.62-0.28,0.62-0.63V0.63C70,0.28,69.72,0,69.38,0H58.62C58.28,0,58,0.28,58,0.48v37.9
		c0,0.49,0.28,0.63,0.62,0.63H69.38z" />
	</g>
	<g>
		<path class="st0" d="M159.9,26.98L144.25,0.52c-0.18-0.31-0.53-0.52-0.9-0.52H130.6c-0.53,0-0.75,0.38-0.48,0.84l22.27,37.85
		c0.24,0.42,0.64,0.42,0.89,0l6.64-10.67C160.09,27.7,160.09,27.3,159.9,26.98z" />
	</g>
	<path class="st0" d="M160.62,0C160.28,0,160,0.28,160,0.62v10.76c0,0.34,0.28,0.62,0.62,0.62h10.76c0.34,0,0.62-0.28,0.62-0.62V0.62
	c0-0.34-0.28-0.62-0.62-0.62H160.62z" />
	<g>
		<path class="st0" d="M199.38,39c0.34,0,0.62-0.28,0.62-0.63V0.63c0-0.34-0.28-0.63-0.62-0.63h-10.76C188.28,0,188,0.28,188,0.63
		v37.75c0,0.34,0.28,0.63,0.62,0.63H199.38z" />
	</g>
	<g>
		<path class="st0" d="M98.14,12.5l15.46,25.98c0.18,0.31,0.53,0.52,0.9,0.52h12.91c0.53,0,0.75-0.38,0.48-0.84L105.57,0.32
		c-0.24-0.42-0.64-0.42-0.89,0l-6.55,11.14C97.95,11.78,97.95,12.18,98.14,12.5z" />
	</g>
	<path class="st0" d="M97.38,39c0.34,0,0.62-0.28,0.62-0.62V27.62c0-0.34-0.28-0.62-0.62-0.62H86.62C86.28,27,86,27.28,86,27.62
	v10.76c0,0.34,0.28,0.62,0.62,0.62H97.38z" />
</svg>