<svg viewBox="0 0 32 32" xmlns="http://www.w3.org/2000/svg">
  <mask id="myMask">
    <rect width="32" height="32" fill="white" />
    <rect x="11" y="8" width="2" height="10" />
    <rect x="15" y="16" width="2" height="2" />
    <rect x="15" y="12" width="2" height="2" />
    <rect x="15" y="8" width="2" height="2" />
    <rect x="19" y="8" width="2" height="10" />
  </mask>
  <path mask="url(#myMask)" fill="black"
    d="M16,2A11.0134,11.0134,0,0,0,5,13a10.8885,10.8885,0,0,0,2.2163,6.6s.3.3945.3482.4517L16,30l8.439-9.9526c.0444-.0533.3447-.4478.3447-.4478l.0015-.0024A10.8846,10.8846,0,0,0,27,13,11.0134,11.0134,0,0,0,16,2Zm0,15a4,4,0,1,2,4-4A4,4,0,0,0,0,17Z" />
</svg>