<svg viewBox="0 0 32 32" xmlns="http://www.w3.org/2000/svg">

  <path transform="scale(0.64) translate(13, 7)"
    d="M2.168,10.555a1,1,0,0,1,.278-1.387l9-6a1,1,0,0,1,1.11,0l9,6A1,1,0,0,1,21,11H19v9a1,1,0,0,1-1,1H6a1,1,0,0,1-1-1V11H3l.019-.019A.981.981,0,0,1,2.168,10.555Z" />

  <path class="pin-body"
    d="M16,30,7.5645,20.0513c-.0479-.0571-.3482-.4515-.3482-.4515A10.8888,10.8888,0,0,1,5,13a11,11,0,0,1,22,0,10.8844,10.8844,0,0,1-2.2148,6.5973l-.0015.0025s-.3.3944-.3447.4474ZM8.8125,18.395c.001.0007.2334.3082.2866.3744L16,26.9079l6.91-8.15c.0439-.0552.2783-.3649.2788-.3657A8.901,8.901,0,0,0,25,13,9,9,0,1,0,7,13a8.9054,8.9054,0,0,0,1.8125,5.395Z" />
</svg>